#N canvas 0 59 1024 517 10;
#X obj 201 50 adc~;
#X obj 205 103 *~ 10;
#X obj 133 167 metro 30;
#X obj 113 119 loadbang;
#X obj 128 145 tgl 15 0 empty empty empty 17 7 0 10 -262144 -1 -1 1
1;
#X msg 65 188 \; pd dsp 1;
#X obj 511 11 oscReceive 9001;
#X obj 458 250 loadbang;
#X msg 468 274 \; pd dsp 1;
#X obj 680 344 dac~;
#X obj 683 290 +~;
#X obj 583 262 *~;
#X obj 650 237 *~;
#X obj 738 225 *~;
#X obj 787 227 *~;
#X obj 477 201 osc~ 200;
#X obj 584 198 osc~ 230;
#X obj 675 198 osc~ 250;
#X obj 853 182 osc~ 290;
#X obj 556 34 route switch1 switch2 switch3 switch4;
#X obj 496 87 route on off;
#X obj 595 102 route on off;
#X obj 781 108 route on off;
#X msg 494 115 0;
#X msg 530 113 1;
#X msg 595 130 0;
#X msg 631 128 1;
#X msg 683 131 0;
#X msg 733 129 1;
#X msg 770 141 0;
#X msg 806 139 1;
#X obj 681 314 *~ 0.25;
#X obj 681 76 route on moitie off;
#X msg 716 156 0.5;
#X obj 179 281 oscSend 9998;
#X obj 193 237 oscWaveform~;
#X connect 0 0 1 0;
#X connect 0 1 1 0;
#X connect 1 0 35 0;
#X connect 2 0 35 1;
#X connect 3 0 4 0;
#X connect 3 0 5 0;
#X connect 4 0 2 0;
#X connect 6 0 19 0;
#X connect 7 0 8 0;
#X connect 10 0 31 0;
#X connect 11 0 10 0;
#X connect 12 0 10 0;
#X connect 13 0 10 0;
#X connect 14 0 10 1;
#X connect 15 0 11 0;
#X connect 16 0 12 0;
#X connect 17 0 13 0;
#X connect 18 0 14 0;
#X connect 19 0 20 0;
#X connect 19 1 21 0;
#X connect 19 2 32 0;
#X connect 19 3 22 0;
#X connect 20 0 24 0;
#X connect 20 1 23 0;
#X connect 21 0 26 0;
#X connect 21 1 25 0;
#X connect 22 0 30 0;
#X connect 22 1 29 0;
#X connect 23 0 11 1;
#X connect 24 0 11 1;
#X connect 25 0 12 1;
#X connect 26 0 12 1;
#X connect 27 0 13 1;
#X connect 28 0 13 1;
#X connect 29 0 14 1;
#X connect 30 0 14 1;
#X connect 31 0 9 1;
#X connect 31 0 9 0;
#X connect 32 0 28 0;
#X connect 32 1 33 0;
#X connect 32 2 27 0;
#X connect 33 0 13 1;
#X connect 35 0 34 0;
