#N canvas 31 128 723 389 10;
#X obj 90 173 oscparse;
#X obj 90 146 netreceive -u -b;
#X obj 21 277 s echo;
#X obj 130 11 loadbang;
#X obj 89 207 list trim;
#X obj 512 282 outlet;
#X obj 144 66 \$1;
#X msg 146 87 add2 \$1;
#X obj 85 276 t b;
#X msg 265 139 listen 0;
#X obj 141 275 s midi;
#X obj 282 277 s cv3;
#X obj 322 278 s cv4;
#X obj 368 279 s cv5;
#X obj 63 237 route echo close midi cv1 cv2 cv3 cv4 cv5 gate1 gate2
, f 72;
#X obj 192 275 s cv1;
#X obj 235 279 s cv2;
#X obj 408 285 s gate1;
#X obj 459 281 s gate2;
#X msg 118 114 listen 0;
#X obj 135 35 t b b b;
#X msg 215 83 set listen;
#X connect 0 0 4 0;
#X connect 1 0 0 0;
#X connect 3 0 20 0;
#X connect 4 0 14 0;
#X connect 6 0 7 0;
#X connect 7 0 19 0;
#X connect 8 0 9 0;
#X connect 9 0 1 0;
#X connect 14 0 2 0;
#X connect 14 1 8 0;
#X connect 14 2 10 0;
#X connect 14 3 15 0;
#X connect 14 4 16 0;
#X connect 14 5 11 0;
#X connect 14 6 12 0;
#X connect 14 7 13 0;
#X connect 14 8 17 0;
#X connect 14 9 18 0;
#X connect 14 10 5 0;
#X connect 19 0 1 0;
#X connect 20 0 19 0;
#X connect 20 1 6 0;
#X connect 20 2 21 0;
#X connect 21 0 19 0;
