#N canvas 159 305 417 265 10;
#X obj 185 48 loadbang;
#X obj 54 95 list prepend send;
#X obj 54 118 list trim;
#X msg 79 180 disconnect;
#X obj 54 69 packOSC;
#X obj 317 150 r echo;
#X obj 54 203 netsend -u -b;
#X obj 201 101 \$1;
#X msg 192 123 add2 \$1;
#X obj 53 25 inlet;
#X obj 191 78 t b b b;
#X msg 253 122 set connect 127.0.0.1;
#X msg 75 152 connect 127.0.0.1;
#X connect 0 0 10 0;
#X connect 1 0 2 0;
#X connect 2 0 6 0;
#X connect 3 0 6 0;
#X connect 4 0 1 0;
#X connect 7 0 8 0;
#X connect 8 0 12 0;
#X connect 9 0 4 0;
#X connect 10 0 12 0;
#X connect 10 1 7 0;
#X connect 10 2 11 0;
#X connect 11 0 12 0;
#X connect 12 0 6 0;
