#N canvas 1 60 690 477 10;
#X obj 56 43 inlet;
#X obj 56 71 sel 0;
#X obj 190 152 t b;
#X obj 327 300 del \$2;
#X obj 353 423 line~;
#X obj 351 323 f \$4;
#X obj 396 373 pack 0 \$3;
#X msg 56 102 stop;
#X obj 522 332 pack 0 \$5;
#X obj 353 448 outlet~;
#X obj 150 89 moses;
#X obj 140 119 t b b;
#X msg 91 277 0;
#X obj 518 125 r sus;
#X obj 166 270 pack 1 \$2;
#X obj 365 119 r att;
#X obj 440 119 r dec;
#X obj 608 119 r rel;
#X connect 0 0 1 0;
#X connect 1 0 7 0;
#X connect 1 0 8 0;
#X connect 1 1 10 0;
#X connect 2 0 3 0;
#X connect 2 0 14 0;
#X connect 3 0 5 0;
#X connect 4 0 9 0;
#X connect 5 0 6 0;
#X connect 6 0 4 0;
#X connect 7 0 3 0;
#X connect 8 0 4 0;
#X connect 10 0 11 0;
#X connect 10 1 2 0;
#X connect 11 0 2 0;
#X connect 11 1 12 0;
#X connect 12 0 4 0;
#X connect 13 0 5 1;
#X connect 14 0 4 0;
#X connect 15 0 3 1;
#X connect 15 0 14 1;
#X connect 16 0 6 1;
#X connect 17 0 8 1;
