#N canvas 181 167 607 323 10;
#X obj 156 26 inlet;
#X obj 235 277 outlet~;
#X obj 200 105 *;
#X obj 323 48 \$1;
#X obj 317 5 loadbang;
#X obj 268 227 *~ 0;
#X obj 326 190 -;
#X obj 321 140 t b f;
#X obj 197 177 delread4~ lafolie;
#X obj 375 28 tgl 15 0 empty empty empty 17 7 0 10 -262144 -1 -1 1
1;
#X obj 196 155 line~;
#X obj 258 101 t b f;
#X obj 395 11 metro 5000;
#X obj 516 10 random 5000;
#X msg 195 132 \$1 1000;
#X obj 382 100 +;
#X msg 313 164 40;
#X obj 313 212 / 40;
#X obj 476 45 random 100;
#X obj 477 164 / 100;
#X obj 478 205 line~;
#X msg 477 185 \$1 20;
#X obj 342 251 *~;
#X obj 395 46 random 1000;
#X obj 393 67 / 1000;
#X connect 0 0 2 0;
#X connect 2 0 14 0;
#X connect 3 0 15 1;
#X connect 3 0 7 0;
#X connect 4 0 3 0;
#X connect 4 0 9 0;
#X connect 5 0 22 0;
#X connect 6 0 17 0;
#X connect 7 0 16 0;
#X connect 7 1 6 1;
#X connect 8 0 5 0;
#X connect 9 0 12 0;
#X connect 10 0 8 0;
#X connect 11 0 2 0;
#X connect 11 1 2 1;
#X connect 12 0 13 0;
#X connect 12 0 18 0;
#X connect 12 0 23 0;
#X connect 13 0 12 1;
#X connect 14 0 10 0;
#X connect 15 0 11 0;
#X connect 16 0 6 0;
#X connect 17 0 5 1;
#X connect 18 0 19 0;
#X connect 19 0 21 0;
#X connect 20 0 22 1;
#X connect 21 0 20 0;
#X connect 22 0 1 0;
#X connect 23 0 24 0;
#X connect 24 0 15 0;
