#N canvas 195 239 569 311 10;
#X msg 226 114 all \$1;
#X obj 126 43 delwrite~ lafolie 10000;
#X obj 154 156 clone delays 40 -s 1;
#X obj 284 157 clone delays 40 -s 1;
#X obj 282 209 /~ 4;
#X obj 201 208 /~ 4;
#X obj 155 10 inlet~;
#X obj 220 271 outlet~;
#X obj 285 274 outlet~;
#X obj 315 31 inlet;
#X connect 0 0 2 0;
#X connect 0 0 3 0;
#X connect 2 0 5 0;
#X connect 3 0 4 0;
#X connect 4 0 8 0;
#X connect 5 0 7 0;
#X connect 6 0 1 0;
#X connect 9 0 0 0;
