#N canvas 153 96 739 449 10;
#X obj 314 422 dac~;
#X obj 289 378 *~;
#X obj 289 398 hip~ 10;
#X obj 650 25 loadbang;
#X msg 650 45 \; pd dsp 1;
#X obj 451 354 line~;
#X msg 453 333 \$1 20;
#X obj 357 73 s att;
#X obj 406 81 s dec;
#X obj 443 81 s sus;
#X obj 481 81 s rel;
#X msg 178 237 all \$1;
#X msg 246 247 all \$1;
#X msg 298 227 all \$1;
#X msg 356 254 all \$1;
#X obj 96 21 notein 1;
#X obj 53 56 pack;
#X obj 47 106 pack f f f;
#X obj 353 378 *~;
#X obj 353 399 hip~ 10;
#X obj 305 336 delayALaFolie;
#X obj 179 7 oscReceive 9001;
#X obj 245 226 * 0.01;
#X obj 359 232 * 0.01;
#X obj 53 79 poly 5 1;
#X obj 13 20 oscNotein 1;
#X msg 623 104 /niveau 0.5 \;;
#X msg 604 144 /delays 1 \;;
#X msg 595 164 /sustain 1 \;;
#X msg 613 124 /attaque 10 \;;
#X msg 577 204 /decay 10 \;;
#X msg 586 184 /release 10 \;;
#N canvas 0 50 429 358 voice 0;
#X obj 158 328 outlet~;
#X obj 159 301 cos~;
#X obj 127 246 phasor~;
#X obj 170 279 +~;
#X obj 268 224 cos~;
#X obj 242 169 phasor~;
#X obj 280 198 +~;
#X obj 375 135 osc~;
#X obj 118 21 inlet;
#X obj 217 25 inlet;
#X obj 292 25 inlet;
#X obj 344 24 inlet;
#X obj 139 183 *;
#X obj 215 248 *~ 0;
#X obj 342 175 *~ 0;
#X obj 323 124 *;
#X obj 15 14 loadbang;
#X obj 11 123 inlet;
#X obj 15 40 samplerate~;
#X obj 33 65 / 128, f 12;
#X msg 180 130 0, f 4;
#X connect 1 0 0 0;
#X connect 2 0 3 0;
#X connect 3 0 1 0;
#X connect 4 0 13 0;
#X connect 5 0 6 0;
#X connect 6 0 4 0;
#X connect 7 0 14 0;
#X connect 8 0 12 0;
#X connect 9 0 13 1;
#X connect 10 0 15 0;
#X connect 11 0 14 1;
#X connect 12 0 5 0;
#X connect 13 0 3 1;
#X connect 14 0 6 1;
#X connect 15 0 7 0;
#X connect 16 0 18 0;
#X connect 17 0 20 0;
#X connect 18 0 19 0;
#X connect 19 0 2 0;
#X connect 19 0 12 1;
#X connect 19 0 15 1;
#X connect 20 0 2 1;
#X connect 20 0 5 1;
#X connect 20 0 7 1;
#X restore 77 243 pd voice;
#X obj 15 233 metro 30;
#X obj 9 193 loadbang;
#X obj 24 215 tgl 15 0 empty empty empty 17 7 0 10 -262144 -1 -1 1
1;
#X obj 502 384 oscSend 9998;
#X obj 27 328 oscWaveform~;
#X obj 191 100 r cv1;
#X obj 252 97 r cv2;
#X obj 190 144 t b f;
#X obj 251 141 t b f;
#X obj 308 142 t b f;
#X obj 309 98 r cv3;
#X obj 366 143 t b f;
#X obj 367 99 r cv4;
#X obj 424 274 t b f;
#N canvas 0 50 450 300 scale 0;
#X obj 227 25 inlet;
#X obj 227 43 / 127;
#X obj 227 61 - 0.5;
#X obj 227 79 abs;
#X obj 227 97 * 100;
#X obj 227 115 + 0.5;
#X obj 227 133 outlet, f 5;
#X connect 0 0 1 0;
#X connect 1 0 2 0;
#X connect 2 0 3 0;
#X connect 3 0 4 0;
#X connect 4 0 5 0;
#X connect 5 0 6 0;
#X restore 424 253 pd scale;
#X obj 397 299 +;
#X obj 424 235 r cv5;
#N canvas 0 50 450 300 scale 0;
#X obj 227 25 inlet;
#X obj 227 43 / 127;
#X obj 227 61 - 0.5;
#X obj 227 79 abs;
#X obj 229 219 outlet, f 5;
#X obj 227 97 * 400;
#X msg 250 155 \$1 50;
#X obj 250 178 line;
#X connect 0 0 1 0;
#X connect 1 0 2 0;
#X connect 2 0 3 0;
#X connect 3 0 5 0;
#X connect 5 0 6 0;
#X connect 6 0 7 0;
#X connect 7 0 4 0;
#X restore 367 117 pd scale;
#N canvas 0 50 450 300 scale 0;
#X obj 227 25 inlet;
#X obj 227 43 / 127;
#X obj 227 61 - 0.5;
#X obj 227 79 abs;
#X obj 236 190 outlet, f 5;
#X obj 254 156 line;
#X msg 250 123 \$1 50;
#X obj 227 97 * 4;
#X connect 0 0 1 0;
#X connect 1 0 2 0;
#X connect 2 0 3 0;
#X connect 3 0 7 0;
#X connect 5 0 4 0;
#X connect 6 0 5 0;
#X connect 7 0 6 0;
#X restore 309 116 pd scale;
#N canvas 409 149 450 300 scale 0;
#X obj 227 25 inlet;
#X obj 227 43 / 127;
#X obj 227 61 - 0.5;
#X obj 227 79 abs;
#X obj 222 191 outlet, f 5;
#X obj 227 97 * 400;
#X obj 246 168 line;
#X msg 236 128 \$1 50;
#X connect 0 0 1 0;
#X connect 1 0 2 0;
#X connect 2 0 3 0;
#X connect 3 0 5 0;
#X connect 5 0 7 0;
#X connect 6 0 4 0;
#X connect 7 0 6 0;
#X restore 252 115 pd scale;
#N canvas 523 234 450 300 scale 0;
#X obj 227 25 inlet;
#X obj 227 43 / 127;
#X obj 227 61 - 0.5;
#X obj 227 79 abs;
#X obj 227 182 outlet, f 5;
#X msg 228 140 \$1 50;
#X obj 227 161 line;
#X obj 227 97 * 4;
#X connect 0 0 1 0;
#X connect 1 0 2 0;
#X connect 2 0 3 0;
#X connect 3 0 7 0;
#X connect 5 0 6 0;
#X connect 6 0 4 0;
#X connect 7 0 5 0;
#X restore 191 118 pd scale;
#X obj 180 199 +, f 4;
#X obj 243 200 +;
#X obj 305 200 +;
#X obj 362 201 +;
#X obj 190 280 clone 6 voice~ -s 1, f 23;
#X obj 242 309 *~ 0.4;
#X obj 186 36 route ratio1 indice1 ratio2 indice2 attaque decay sustain
release delays niveau cv, f 65;
#X obj 520 95 route on off;
#X obj 379 170 spigot;
#X obj 318 170 spigot;
#X obj 264 170 spigot;
#X obj 200 170 spigot;
#X msg 547 152 1;
#X obj 502 152 t 0 0;
#X msg 600 67 off;
#X connect 1 0 2 0;
#X connect 2 0 0 0;
#X connect 3 0 4 0;
#X connect 3 0 26 0;
#X connect 3 0 29 0;
#X connect 3 0 27 0;
#X connect 3 0 31 0;
#X connect 3 0 30 0;
#X connect 3 0 28 0;
#X connect 3 0 68 0;
#X connect 5 0 1 1;
#X connect 5 0 18 1;
#X connect 6 0 5 0;
#X connect 11 0 58 1;
#X connect 12 0 58 2;
#X connect 13 0 58 3;
#X connect 14 0 58 4;
#X connect 15 0 16 0;
#X connect 15 1 16 1;
#X connect 16 0 24 0;
#X connect 17 0 58 0;
#X connect 18 0 19 0;
#X connect 19 0 0 1;
#X connect 20 0 1 0;
#X connect 20 1 18 0;
#X connect 21 0 60 0;
#X connect 22 0 12 0;
#X connect 22 0 32 2;
#X connect 23 0 14 0;
#X connect 23 0 32 4;
#X connect 24 0 17 0;
#X connect 24 1 17 1;
#X connect 24 2 17 2;
#X connect 25 0 16 0;
#X connect 25 1 16 1;
#X connect 26 0 36 0;
#X connect 27 0 36 0;
#X connect 28 0 36 0;
#X connect 29 0 36 0;
#X connect 30 0 36 0;
#X connect 31 0 36 0;
#X connect 32 0 37 0;
#X connect 33 0 32 0;
#X connect 33 0 37 1;
#X connect 34 0 35 0;
#X connect 35 0 33 0;
#X connect 37 0 36 0;
#X connect 38 0 53 0;
#X connect 39 0 52 0;
#X connect 40 0 54 0;
#X connect 40 1 65 0;
#X connect 41 0 55 0;
#X connect 41 1 64 0;
#X connect 42 0 56 0;
#X connect 42 1 63 0;
#X connect 43 0 51 0;
#X connect 44 0 57 0;
#X connect 44 1 62 0;
#X connect 45 0 50 0;
#X connect 46 0 48 0;
#X connect 46 1 48 1;
#X connect 47 0 46 0;
#X connect 48 0 20 1;
#X connect 49 0 47 0;
#X connect 50 0 44 0;
#X connect 51 0 42 0;
#X connect 52 0 41 0;
#X connect 53 0 40 0;
#X connect 54 0 11 0;
#X connect 55 0 22 0;
#X connect 56 0 13 0;
#X connect 57 0 23 0;
#X connect 58 0 59 0;
#X connect 59 0 20 0;
#X connect 59 0 18 0;
#X connect 59 0 1 0;
#X connect 60 0 32 1;
#X connect 60 0 54 0;
#X connect 60 1 55 0;
#X connect 60 2 32 3;
#X connect 60 2 56 0;
#X connect 60 3 57 0;
#X connect 60 4 7 0;
#X connect 60 5 8 0;
#X connect 60 6 9 0;
#X connect 60 7 10 0;
#X connect 60 8 48 0;
#X connect 60 9 6 0;
#X connect 60 10 61 0;
#X connect 61 0 66 0;
#X connect 61 1 67 0;
#X connect 62 0 57 1;
#X connect 63 0 56 1;
#X connect 64 0 55 1;
#X connect 65 0 54 1;
#X connect 66 0 65 1;
#X connect 66 0 64 1;
#X connect 66 0 63 1;
#X connect 66 0 62 1;
#X connect 67 0 54 1;
#X connect 67 0 55 1;
#X connect 67 0 56 1;
#X connect 67 0 57 1;
#X connect 67 1 65 1;
#X connect 67 1 64 1;
#X connect 67 1 63 1;
#X connect 67 1 62 1;
#X connect 68 0 61 0;
