#N canvas 206 78 739 449 10;
#X obj 314 402 dac~;
#X obj 289 342 *~;
#X obj 289 362 hip~ 10;
#X obj 650 25 loadbang;
#X msg 650 45 \; pd dsp 1;
#X obj 453 282 line~;
#X msg 455 261 \$1 20;
#X obj 335 88 s att;
#X obj 376 108 s dec;
#X obj 386 87 s sus;
#X obj 418 109 s rel;
#X msg 179 167 all \$1;
#X msg 235 173 all \$1;
#X msg 283 160 all \$1;
#X msg 329 176 all \$1;
#X obj 95 60 notein 1;
#X obj 81 94 pack;
#X obj 75 144 pack f f f;
#X obj 353 342 *~;
#X obj 353 363 hip~ 10;
#X obj 310 276 delayALaFolie;
#N canvas 0 50 450 250 (subpatch) 0;
#X array table 127 float 3;
#A 0 0 0 0 0 0 0 0 0 0 0 0 0 0 0 0 0 0 0 0 0 0 0 0 0 0 0 0 0 0 0 0
0 0 0 0 0 0 0 0 0 0 0 0 0 0 0 0 0 0 0 0 0 0 0 0 0 0 0 0 0 0 0 0 0 0
0 0 0 0 0 0 0 0 0 0 0 0 0 0 0 0 0 0 0 0 0 0 0 0 0 0 0 0 0 0 0 0 0 0
0 0 0 0 0 0 0 0 0 0 0 0 0 0 0 0 0 0 0 0 0 0 0 0 0 0 0 0;
#X coords 0 1 127 -1 200 140 1;
#X restore 517 292 graph;
#X obj 187 379 metro 30;
#X obj 187 341 loadbang, f 9;
#X obj 187 361 tgl 15 0 empty empty empty 17 7 0 10 -262144 -1 -1 1
1;
#X obj 144 400 tabwrite~ table;
#X obj 179 7 oscReceive 9001;
#X obj 619 269 oscSend~ 9998;
#X obj 179 30 route ratio1 indice1 ratio2 indice2 attaque decay sustain
release delays niveau, f 65;
#X obj 234 152 * 0.01;
#X obj 332 154 * 0.01;
#X obj 228 240 *~ 0.25;
#X obj 81 117 poly 5 1;
#X obj 12 59 oscNotein 1;
#X obj 195 215 clone 6 voice~ -s 1, f 23;
#X connect 1 0 2 0;
#X connect 2 0 0 0;
#X connect 3 0 4 0;
#X connect 5 0 1 1;
#X connect 5 0 18 1;
#X connect 6 0 5 0;
#X connect 11 0 34 1;
#X connect 12 0 34 2;
#X connect 13 0 34 3;
#X connect 14 0 34 4;
#X connect 15 0 16 0;
#X connect 15 1 16 1;
#X connect 16 0 32 0;
#X connect 17 0 34 0;
#X connect 18 0 19 0;
#X connect 19 0 0 1;
#X connect 20 0 1 0;
#X connect 20 1 18 0;
#X connect 22 0 25 0;
#X connect 23 0 24 0;
#X connect 24 0 22 0;
#X connect 26 0 28 0;
#X connect 28 0 11 0;
#X connect 28 1 29 0;
#X connect 28 2 13 0;
#X connect 28 3 30 0;
#X connect 28 4 7 0;
#X connect 28 5 8 0;
#X connect 28 6 9 0;
#X connect 28 7 10 0;
#X connect 28 8 20 1;
#X connect 28 9 6 0;
#X connect 29 0 12 0;
#X connect 30 0 14 0;
#X connect 31 0 20 0;
#X connect 31 0 18 0;
#X connect 31 0 1 0;
#X connect 32 0 17 0;
#X connect 32 1 17 1;
#X connect 32 2 17 2;
#X connect 33 0 16 0;
#X connect 33 1 16 1;
#X connect 34 0 31 0;
#X connect 34 0 25 0;
