#N canvas 340 174 450 295 10;
#X obj 173 3 r midi;
#X obj 179 262 outlet;
#X obj 274 259 outlet;
#X obj 361 33 \$1;
#X obj 362 10 loadbang;
#X obj 214 118 route;
#X obj 247 97 + 143;
#X obj 252 147 route;
#X obj 285 126 + 127;
#X obj 193 184 unpack;
#X obj 255 181 unpack;
#X msg 277 209 0;
#X obj 187 84 spigot;
#X obj 241 31 > 0;
#X obj 253 52 *;
#X obj 241 11 t f f;
#X obj 268 31 < 17;
#X connect 0 0 12 0;
#X connect 3 0 6 0;
#X connect 3 0 8 0;
#X connect 3 0 15 0;
#X connect 4 0 3 0;
#X connect 5 0 9 0;
#X connect 5 1 7 0;
#X connect 6 0 5 1;
#X connect 7 0 10 0;
#X connect 8 0 7 1;
#X connect 9 0 1 0;
#X connect 9 1 2 0;
#X connect 10 0 1 0;
#X connect 10 1 11 0;
#X connect 11 0 2 0;
#X connect 12 0 5 0;
#X connect 13 0 14 0;
#X connect 14 0 12 1;
#X connect 15 0 13 0;
#X connect 15 1 16 0;
#X connect 16 0 14 1;
