#N canvas 272 138 582 361 10;
#X obj 126 122 list prepend;
#X obj 336 18 loadbang;
#X obj 146 148 list trim;
#X obj 14 20 inlet~;
#X msg 237 69 /waveform;
#X msg 378 110 resize 128;
#X obj 75 22 inlet;
#X obj 149 208 outlet;
#X obj 7 152 tabwrite~ waveform-\$0;
#X obj 92 66 array get waveform-\$0;
#X obj 359 150 array define waveform-\$0;
#X connect 0 0 2 0;
#X connect 1 0 4 0;
#X connect 1 0 5 0;
#X connect 2 0 7 0;
#X connect 3 0 8 0;
#X connect 4 0 0 1;
#X connect 5 0 10 0;
#X connect 6 0 8 0;
#X connect 6 0 9 0;
#X connect 9 0 0 0;
