#N canvas 58 70 781 479 10;
#X obj 353 441 outlet~;
#X obj 140 41 inlet;
#X obj 355 366 *~;
#X obj 370 337 cos~;
#X obj 348 256 phasor~;
#X obj 381 315 +~;
#X obj 584 231 cos~;
#X obj 558 176 phasor~;
#X obj 596 205 +~;
#X obj 713 139 osc~;
#X obj 339 31 inlet;
#X obj 438 35 inlet;
#X obj 630 29 inlet;
#X obj 682 28 inlet;
#X obj 258 167 mtof;
#X obj 147 71 unpack;
#X obj 323 324 adsr~;
#X obj 360 193 *;
#X obj 348 76 t b f;
#X obj 531 255 *~ 0;
#X obj 680 179 *~ 0;
#X obj 469 237 adsr~;
#X obj 504 286 *~;
#X obj 657 107 *;
#X obj 630 68 t b f;
#X obj 354 388 /~ 6;
#X obj 62 87 bendin 1;
#X obj 47 114 / 8192;
#X obj 47 134 - 1;
#X obj 47 154 * 2;
#X obj 234 135 +;
#X obj 47 174 t b f;
#X obj 333 417 *~ 0;
#X obj 216 213 sel 0;
#X obj 232 234 / 255;
#X obj 235 255 + 0.5;
#X obj 454 315 *~ 0;
#X obj 18 66 oscBendin 1;
#X connect 1 0 15 0;
#X connect 2 0 25 0;
#X connect 3 0 2 0;
#X connect 4 0 5 0;
#X connect 5 0 3 0;
#X connect 6 0 19 0;
#X connect 7 0 8 0;
#X connect 8 0 6 0;
#X connect 9 0 20 0;
#X connect 10 0 18 0;
#X connect 11 0 19 1;
#X connect 12 0 24 0;
#X connect 13 0 20 1;
#X connect 14 0 4 0;
#X connect 14 0 17 0;
#X connect 14 0 23 0;
#X connect 15 0 30 0;
#X connect 15 1 16 0;
#X connect 15 1 21 0;
#X connect 15 1 33 0;
#X connect 16 0 2 1;
#X connect 17 0 7 0;
#X connect 18 0 17 0;
#X connect 18 1 17 1;
#X connect 19 0 22 0;
#X connect 20 0 8 1;
#X connect 21 0 22 1;
#X connect 22 0 36 0;
#X connect 23 0 9 0;
#X connect 24 0 23 0;
#X connect 24 1 23 1;
#X connect 25 0 32 0;
#X connect 26 0 27 0;
#X connect 27 0 28 0;
#X connect 28 0 29 0;
#X connect 29 0 31 0;
#X connect 30 0 14 0;
#X connect 31 0 30 0;
#X connect 31 1 30 1;
#X connect 32 0 0 0;
#X connect 33 1 34 0;
#X connect 34 0 35 0;
#X connect 35 0 32 1;
#X connect 35 0 36 1;
#X connect 36 0 5 1;
#X connect 37 0 27 0;
