#N canvas 348 186 450 300 10;
#X obj 174 4 inlet~;
#X obj 195 271 outlet~;
#X obj 258 12 inlet;
#X obj 350 18 inlet;
#X obj 212 209 *~ 1.5708;
#X obj 200 157 clip~ -1 1;
#X obj 197 244 cos~;
#X obj 211 183 +~ 1;
#X obj 219 111 *~;
#X obj 203 76 +~;
#X obj 300 103 pow;
#X msg 291 77 10;
#X obj 301 50 t b f;
#X obj 298 148 line~;
#X msg 298 125 \$1 50;
#X obj 245 76 line~;
#X msg 245 53 \$1 50;
#X obj 62 23 loadbang;
#X msg 139 13 0;
#X connect 0 0 9 0;
#X connect 2 0 12 0;
#X connect 3 0 16 0;
#X connect 4 0 6 0;
#X connect 5 0 7 0;
#X connect 6 0 1 0;
#X connect 7 0 4 0;
#X connect 8 0 5 0;
#X connect 9 0 8 0;
#X connect 10 0 14 0;
#X connect 11 0 10 0;
#X connect 12 0 11 0;
#X connect 12 1 10 1;
#X connect 13 0 8 1;
#X connect 14 0 13 0;
#X connect 15 0 9 1;
#X connect 16 0 15 0;
#X connect 17 0 18 0;
#X connect 18 0 12 0;
#X connect 18 0 16 0;
