#N canvas 75 60 786 499 10;
#X obj 159 320 loadbang;
#X msg 302 360 \; pd dsp 1;
#X obj 131 7 oscReceive 9001;
#X obj 145 248 adc~, f 7;
#X obj 565 402 hip~ 10;
#X obj 674 463 dac~, f 8;
#N canvas 50 93 611 465 transpo 0;
#X obj 145 7 inlet;
#X obj 185 302 *~;
#X obj 308 239 line~;
#X floatatom 340 56 0 0 0 0 - - -;
#X obj 308 213 pack 0 200;
#X obj 340 30 r window;
#X obj 122 87 exp;
#X floatatom 122 113 6 0 0 0 - - -, f 6;
#X obj 122 203 /;
#X obj 249 133 * 0.001;
#X obj 403 310 line~;
#X obj 403 285 pack 0 200;
#X floatatom 403 234 0 0 0 0 - - -;
#X obj 403 208 r delay;
#X obj 185 328 +~;
#X obj 122 354 cos~;
#X obj 122 381 *~;
#X obj 122 410 +~;
#X obj 209 261 wrap~;
#X obj 354 304 *~;
#X obj 354 337 +~;
#X obj 291 364 cos~;
#X obj 291 391 *~;
#X obj 246 153 t b f;
#X floatatom 122 229 6 0 0 0 - - -, f 6;
#X obj 209 234 +~ 0.5;
#X obj 122 302 -~ 0.5;
#X obj 122 328 *~ 0.5;
#X obj 291 303 -~ 0.5;
#X obj 291 336 *~ 0.5;
#X obj 122 140 - 1;
#X obj 122 61 * 0.05776;
#X obj 122 166 * -1;
#X text 185 107 speed;
#X text 184 121 change;
#X text 157 196 tape head;
#X obj 122 260 phasor~;
#X obj 403 261 max 1.5;
#X obj 340 83 max 1;
#X text 158 209 rotation freq;
#X obj 123 435 outlet~;
#X obj 178 357 delread4~ delayL;
#X obj 354 366 delread4~ delayL;
#X connect 0 0 31 0;
#X connect 1 0 14 0;
#X connect 2 0 1 1;
#X connect 2 0 19 1;
#X connect 3 0 38 0;
#X connect 4 0 2 0;
#X connect 5 0 3 0;
#X connect 6 0 7 0;
#X connect 7 0 30 0;
#X connect 8 0 24 0;
#X connect 9 0 23 0;
#X connect 10 0 14 1;
#X connect 10 0 20 1;
#X connect 11 0 10 0;
#X connect 12 0 37 0;
#X connect 13 0 12 0;
#X connect 14 0 41 0;
#X connect 15 0 16 0;
#X connect 16 0 17 0;
#X connect 17 0 40 0;
#X connect 18 0 19 0;
#X connect 18 0 28 0;
#X connect 19 0 20 0;
#X connect 20 0 42 0;
#X connect 21 0 22 0;
#X connect 22 0 17 1;
#X connect 23 0 8 0;
#X connect 23 1 8 1;
#X connect 24 0 36 0;
#X connect 25 0 18 0;
#X connect 26 0 27 0;
#X connect 27 0 15 0;
#X connect 28 0 29 0;
#X connect 29 0 21 0;
#X connect 30 0 32 0;
#X connect 31 0 6 0;
#X connect 32 0 8 0;
#X connect 36 0 1 0;
#X connect 36 0 26 0;
#X connect 36 0 25 0;
#X connect 37 0 11 0;
#X connect 38 0 9 0;
#X connect 38 0 4 0;
#X connect 41 0 16 1;
#X connect 42 0 22 1;
#X restore 130 158 pd transpo;
#N canvas 116 73 611 465 transpo 0;
#X obj 148 17 inlet;
#X obj 185 302 *~;
#X obj 308 239 line~;
#X floatatom 340 56 0 0 0 0 - - -;
#X obj 308 213 pack 0 200;
#X obj 340 30 r window;
#X obj 122 87 exp;
#X floatatom 122 113 6 0 0 0 - - -, f 6;
#X obj 122 203 /;
#X obj 249 133 * 0.001;
#X obj 403 310 line~;
#X obj 403 285 pack 0 200;
#X floatatom 403 234 0 0 0 0 - - -;
#X obj 403 208 r delay;
#X obj 185 328 +~;
#X obj 122 354 cos~;
#X obj 122 381 *~;
#X obj 122 410 +~;
#X obj 209 261 wrap~;
#X obj 354 304 *~;
#X obj 354 337 +~;
#X obj 291 364 cos~;
#X obj 291 391 *~;
#X obj 246 153 t b f;
#X floatatom 122 229 6 0 0 0 - - -, f 6;
#X obj 209 234 +~ 0.5;
#X obj 122 302 -~ 0.5;
#X obj 122 328 *~ 0.5;
#X obj 291 303 -~ 0.5;
#X obj 291 336 *~ 0.5;
#X obj 122 140 - 1;
#X obj 122 61 * 0.05776;
#X obj 122 166 * -1;
#X text 185 107 speed;
#X text 184 121 change;
#X text 157 196 tape head;
#X obj 122 260 phasor~;
#X obj 403 261 max 1.5;
#X obj 340 83 max 1;
#X text 158 209 rotation freq;
#X obj 123 435 outlet~;
#X obj 178 357 delread4~ delayR;
#X obj 354 366 delread4~ delayR;
#X connect 0 0 31 0;
#X connect 1 0 14 0;
#X connect 2 0 1 1;
#X connect 2 0 19 1;
#X connect 3 0 38 0;
#X connect 4 0 2 0;
#X connect 5 0 3 0;
#X connect 6 0 7 0;
#X connect 7 0 30 0;
#X connect 8 0 24 0;
#X connect 9 0 23 0;
#X connect 10 0 14 1;
#X connect 10 0 20 1;
#X connect 11 0 10 0;
#X connect 12 0 37 0;
#X connect 13 0 12 0;
#X connect 14 0 41 0;
#X connect 15 0 16 0;
#X connect 16 0 17 0;
#X connect 17 0 40 0;
#X connect 18 0 19 0;
#X connect 18 0 28 0;
#X connect 19 0 20 0;
#X connect 20 0 42 0;
#X connect 21 0 22 0;
#X connect 22 0 17 1;
#X connect 23 0 8 0;
#X connect 23 1 8 1;
#X connect 24 0 36 0;
#X connect 25 0 18 0;
#X connect 26 0 27 0;
#X connect 27 0 15 0;
#X connect 28 0 29 0;
#X connect 29 0 21 0;
#X connect 30 0 32 0;
#X connect 31 0 6 0;
#X connect 32 0 8 0;
#X connect 36 0 1 0;
#X connect 36 0 26 0;
#X connect 36 0 25 0;
#X connect 37 0 11 0;
#X connect 38 0 9 0;
#X connect 38 0 4 0;
#X connect 41 0 16 1;
#X connect 42 0 22 1;
#X restore 201 158 pd transpo;
#X obj 35 272 delwrite~ delayL 5000;
#X obj 183 274 delwrite~ delayR 5000;
#X obj 621 402 hip~ 10;
#N canvas 153 195 450 300 phaser 0;
#X obj 58 67 rpole~;
#X obj 58 42 rzero_rev~;
#X obj 58 116 rpole~;
#X obj 58 91 rzero_rev~;
#X obj 58 164 rpole~;
#X obj 58 139 rzero_rev~;
#X obj 58 213 rpole~;
#X obj 58 188 rzero_rev~;
#X obj 239 111 phasor~ 0.3;
#X obj 239 138 expr~ 1 - 0.03 - 0.6*abs($v1-0.5)*abs($v1-0.5);
#X obj 57 260 outlet~;
#X obj 61 6 inlet~;
#X obj 247 58 inlet;
#X connect 0 0 3 0;
#X connect 1 0 0 0;
#X connect 2 0 5 0;
#X connect 3 0 2 0;
#X connect 4 0 7 0;
#X connect 5 0 4 0;
#X connect 6 0 10 0;
#X connect 7 0 6 0;
#X connect 8 0 9 0;
#X connect 9 0 1 1;
#X connect 9 0 0 1;
#X connect 9 0 3 1;
#X connect 9 0 2 1;
#X connect 9 0 5 1;
#X connect 9 0 4 1;
#X connect 9 0 7 1;
#X connect 9 0 6 1;
#X connect 11 0 1 0;
#X connect 12 0 8 0;
#X restore 439 355 pd phaser;
#X obj 323 211 mix~, f 6;
#X obj 272 212 mix~, f 6;
#N canvas 153 195 450 300 phaser 0;
#X obj 113 70 rpole~;
#X obj 113 45 rzero_rev~;
#X obj 113 119 rpole~;
#X obj 113 94 rzero_rev~;
#X obj 113 167 rpole~;
#X obj 113 142 rzero_rev~;
#X obj 113 216 rpole~;
#X obj 113 191 rzero_rev~;
#X obj 239 111 phasor~ 0.3;
#X obj 239 138 expr~ 1 - 0.03 - 0.6*abs($v1-0.5)*abs($v1-0.5);
#X obj 57 260 outlet~;
#X obj 74 7 inlet~;
#X obj 247 58 inlet;
#X obj 76 238 +~;
#X connect 0 0 3 0;
#X connect 1 0 0 0;
#X connect 2 0 5 0;
#X connect 3 0 2 0;
#X connect 4 0 7 0;
#X connect 5 0 4 0;
#X connect 6 0 13 1;
#X connect 7 0 6 0;
#X connect 8 0 9 0;
#X connect 9 0 1 1;
#X connect 9 0 0 1;
#X connect 9 0 3 1;
#X connect 9 0 2 1;
#X connect 9 0 5 1;
#X connect 9 0 4 1;
#X connect 9 0 7 1;
#X connect 9 0 6 1;
#X connect 11 0 1 0;
#X connect 11 0 13 0;
#X connect 12 0 8 0;
#X connect 13 0 10 0;
#X restore 522 291 pd phaser;
#X obj 564 380 mix~, f 7;
#X obj 621 382 mix~, f 7;
#X obj 368 262 disto~;
#X obj 420 262 disto~;
#X obj 108 130 +;
#X obj 115 110 t b f;
#X obj 184 119 +;
#X obj 191 97 t b f;
#X obj 374 209 +;
#X obj 371 175 t b f;
#X obj 410 173 +;
#X obj 385 126 t b f;
#X obj 486 256 +;
#X obj 448 224 t b f;
#X obj 541 257 +;
#X obj 548 208 t b f;
#X obj 315 99 / 127;
#X obj 492 174 / 127;
#X obj 63 69 / 12.7;
#X msg 207 369 \; window 100 \; delay 0;
#X obj 46 39 r cv1;
#X obj 288 64 r cv2;
#X obj 397 434 oscFft~;
#X obj 373 382 metro 30;
#X obj 373 358 tgl 15 0 empty empty empty 17 7 0 10 -262144 -1 -1 1
1;
#X obj 463 113 r cv3;
#X obj 32 472 oscSend 9998;
#X msg 91 371 /gain.L 0;
#X msg 108 392 /gain.R 0;
#X msg 134 413 /vol.L 0.6;
#X msg 151 434 /vol.R 0.6;
#X msg 45 421 /trans.R 0;
#X msg 29 400 /trans.L 0;
#X obj 99 32 route trans.L trans.R mix.T.L mix.T.R gain.L gain.R rate.P.L
rate.P.R mix.P.L mix.P.R vol.L vol.R, f 108;
#X obj 677 251 line~;
#X obj 730 246 line~;
#X msg 675 218 \$1 30;
#X msg 724 215 \$1 30;
#X obj 721 440 *~;
#X obj 661 440 *~;
#X connect 0 0 1 0;
#X connect 0 0 34 0;
#X connect 0 0 39 0;
#X connect 0 0 47 0;
#X connect 0 0 42 0;
#X connect 0 0 43 0;
#X connect 0 0 46 0;
#X connect 0 0 44 0;
#X connect 0 0 45 0;
#X connect 2 0 48 0;
#X connect 3 0 8 0;
#X connect 3 0 13 0;
#X connect 3 1 9 0;
#X connect 3 1 12 0;
#X connect 4 0 37 0;
#X connect 4 0 54 0;
#X connect 6 0 13 1;
#X connect 7 0 12 1;
#X connect 10 0 37 0;
#X connect 10 0 53 0;
#X connect 11 0 15 1;
#X connect 12 0 18 0;
#X connect 13 0 17 0;
#X connect 14 0 16 1;
#X connect 15 0 4 0;
#X connect 16 0 10 0;
#X connect 17 0 11 0;
#X connect 17 0 15 0;
#X connect 18 0 14 0;
#X connect 18 0 16 0;
#X connect 19 0 6 0;
#X connect 20 0 19 0;
#X connect 20 1 19 1;
#X connect 21 0 7 0;
#X connect 22 0 21 0;
#X connect 22 1 21 1;
#X connect 23 0 17 1;
#X connect 24 0 23 0;
#X connect 24 1 23 1;
#X connect 25 0 18 1;
#X connect 26 0 25 0;
#X connect 26 1 25 1;
#X connect 27 0 11 1;
#X connect 28 0 27 0;
#X connect 28 1 27 1;
#X connect 29 0 14 1;
#X connect 30 0 29 0;
#X connect 30 1 29 1;
#X connect 31 0 23 0;
#X connect 31 0 25 0;
#X connect 32 0 27 0;
#X connect 32 0 29 0;
#X connect 33 0 19 0;
#X connect 33 0 21 0;
#X connect 35 0 33 0;
#X connect 36 0 31 0;
#X connect 37 0 41 0;
#X connect 38 0 37 1;
#X connect 39 0 38 0;
#X connect 40 0 32 0;
#X connect 42 0 41 0;
#X connect 43 0 41 0;
#X connect 44 0 41 0;
#X connect 45 0 41 0;
#X connect 46 0 41 0;
#X connect 47 0 41 0;
#X connect 48 0 20 0;
#X connect 48 1 22 0;
#X connect 48 2 13 2;
#X connect 48 3 12 2;
#X connect 48 4 24 0;
#X connect 48 5 26 0;
#X connect 48 6 28 0;
#X connect 48 7 30 0;
#X connect 48 8 15 2;
#X connect 48 9 16 2;
#X connect 48 10 51 0;
#X connect 48 11 52 0;
#X connect 49 0 54 1;
#X connect 50 0 53 1;
#X connect 51 0 49 0;
#X connect 52 0 50 0;
#X connect 53 0 5 1;
#X connect 54 0 5 0;
