#N canvas 124 152 450 300 10;
#X obj 136 51 inlet~;
#X obj 210 47 inlet~;
#X obj 267 8 inlet;
#X obj 208 257 outlet~;
#X obj 212 216 +~;
#X obj 247 182 *~;
#X obj 192 182 *~;
#X obj 258 151 line~;
#X obj 306 150 line~;
#X msg 258 125 \$1 50;
#X msg 306 125 \$1 50;
#X obj 268 31 clip 0 1;
#X obj 257 93 sqrt;
#X obj 264 64 expr $f1 * -1 + 1;
#X obj 301 97 sqrt;
#X obj 82 19 loadbang;
#X msg 156 18 0;
#X connect 0 0 6 0;
#X connect 1 0 5 0;
#X connect 2 0 11 0;
#X connect 4 0 3 0;
#X connect 5 0 4 1;
#X connect 6 0 4 0;
#X connect 7 0 6 1;
#X connect 8 0 5 1;
#X connect 9 0 7 0;
#X connect 10 0 8 0;
#X connect 11 0 13 0;
#X connect 11 0 14 0;
#X connect 12 0 9 0;
#X connect 13 0 12 0;
#X connect 14 0 10 0;
#X connect 15 0 16 0;
#X connect 16 0 11 0;
