#N canvas 182 173 510 361 10;
#X obj 40 243 loadbang;
#X msg 50 267 \; pd dsp 1;
#X obj 262 337 dac~;
#X obj 265 283 +~;
#X obj 165 255 *~;
#X obj 232 230 *~;
#X obj 320 218 *~;
#X obj 369 220 *~;
#X obj 59 194 osc~ 200;
#X obj 166 191 osc~ 230;
#X obj 257 191 osc~ 250;
#X obj 435 175 osc~ 290;
#X obj 138 27 route switch1 switch2 switch3 switch4;
#X obj 93 4 oscReceive 9001;
#X obj 78 80 route on off;
#X obj 177 95 route on off;
#X obj 352 94 route on off;
#X msg 76 108 0;
#X msg 112 106 1;
#X msg 177 123 0;
#X msg 213 121 1;
#X msg 265 124 0;
#X msg 315 122 1;
#X msg 352 134 0;
#X msg 388 132 1;
#X obj 263 307 *~ 0.25;
#X obj 271 87 route on moitie off;
#X msg 298 149 0.5;
#X connect 0 0 1 0;
#X connect 3 0 25 0;
#X connect 4 0 3 0;
#X connect 5 0 3 0;
#X connect 6 0 3 0;
#X connect 7 0 3 1;
#X connect 8 0 4 0;
#X connect 9 0 5 0;
#X connect 10 0 6 0;
#X connect 11 0 7 0;
#X connect 12 0 14 0;
#X connect 12 1 15 0;
#X connect 12 2 26 0;
#X connect 12 3 16 0;
#X connect 13 0 12 0;
#X connect 14 0 18 0;
#X connect 14 1 17 0;
#X connect 15 0 20 0;
#X connect 15 1 19 0;
#X connect 16 0 24 0;
#X connect 16 1 23 0;
#X connect 17 0 4 1;
#X connect 18 0 4 1;
#X connect 19 0 5 1;
#X connect 20 0 5 1;
#X connect 21 0 6 1;
#X connect 22 0 6 1;
#X connect 23 0 7 1;
#X connect 24 0 7 1;
#X connect 25 0 2 1;
#X connect 25 0 2 0;
#X connect 26 0 22 0;
#X connect 26 1 27 0;
#X connect 26 2 21 0;
#X connect 27 0 6 1;
