#N canvas 304 191 450 300 10;
#X obj 180 21 r midi;
#X obj 170 264 outlet;
#X obj 200 162 route;
#X obj 340 21 loadbang;
#X obj 341 44 \$1;
#X obj 186 187 unpack;
#X obj 183 237 +;
#X obj 213 215 * 128;
#X obj 186 112 spigot;
#X obj 227 136 + 223;
#X obj 241 60 > 0;
#X obj 253 81 *;
#X obj 241 40 t f f;
#X obj 268 60 < 17;
#X connect 0 0 8 0;
#X connect 2 0 5 0;
#X connect 3 0 4 0;
#X connect 4 0 9 0;
#X connect 4 0 12 0;
#X connect 5 0 6 0;
#X connect 5 1 7 0;
#X connect 6 0 1 0;
#X connect 7 0 6 1;
#X connect 8 0 2 0;
#X connect 9 0 2 1;
#X connect 10 0 11 0;
#X connect 11 0 8 1;
#X connect 12 0 10 0;
#X connect 12 1 13 0;
#X connect 13 0 11 1;
