#N canvas 304 191 450 300 10;
#X obj 183 37 r midi;
#X obj 170 264 outlet;
#X obj 202 130 route;
#X obj 312 43 loadbang;
#X obj 312 72 \$1;
#X obj 187 170 unpack;
#X obj 186 228 +;
#X obj 214 198 * 128;
#X obj 191 77 spigot;
#X obj 229 104 + 223;
#X connect 0 0 8 0;
#X connect 2 0 5 0;
#X connect 3 0 4 0;
#X connect 4 0 8 1;
#X connect 4 0 9 0;
#X connect 5 0 6 0;
#X connect 5 1 7 0;
#X connect 6 0 1 0;
#X connect 7 0 6 1;
#X connect 8 0 2 0;
#X connect 9 0 2 1;
