#N canvas 337 252 450 300 10;
#X obj 179 20 r midi;
#X obj 172 254 outlet;
#X obj 234 256 outlet;
#X obj 341 23 \$1;
#X obj 341 2 loadbang;
#X obj 192 163 route;
#X obj 184 72 spigot;
#X obj 350 129 + 175;
#X obj 288 81 < 16;
#X obj 261 81 > 0;
#X obj 273 102 *;
#X obj 261 61 t f f;
#X connect 0 0 6 0;
#X connect 3 0 7 0;
#X connect 3 0 11 0;
#X connect 4 0 3 0;
#X connect 5 0 1 0;
#X connect 5 1 2 0;
#X connect 6 0 5 0;
#X connect 7 0 5 1;
#X connect 8 0 10 1;
#X connect 9 0 10 0;
#X connect 10 0 6 1;
#X connect 11 0 9 0;
#X connect 11 1 8 0;
