#N canvas 206 209 630 423 10;
#X obj 145 137 metro;
#X obj 188 210 line;
#X obj 213 112 tgl 15 0 empty empty empty 17 7 0 10 -262144 -1 -1 1
1;
#X obj 368 42 loadbang;
#X obj 23 14 oscReceive 9001;
#X obj 187 321 + 200;
#X obj 70 354 dac~;
#X obj 77 222 phasor~;
#X obj 77 244 hip~ 20;
#X obj 77 288 *~ 0.1;
#X obj 77 264 lop~ 1000;
#X obj 190 299 * 3;
#X obj 345 306 oscSend~ 9998;
#N canvas 0 50 450 250 (subpatch) 0;
#X array table 127 float 3;
#A 0 0 0 0 0 0 0 0 0 0 0 0 0 0 0 0 0 0 0 0 0 0 0 0 0 0 0 0 0 0 0 0
0 0 0 0 0 0 0 0 0 0 0 0 0 0 0 0 0 0 0 0 0 0 0 0 0 0 0 0 0 0 0 0 0 0
0 0 0 0 0 0 0 0 0 0 0 0 0 0 0 0 0 0 0 0 0 0 0 0 0 0 0 0 0 0 0 0 0 0
0 0 0 0 0 0 0 0 0 0 0 0 0 0 0 0 0 0 0 0 0 0 0 0 0 0 0 0;
#X coords 0 1 127 -1 200 140 1;
#X restore 388 128 graph;
#X obj 284 342 metro 30;
#X obj 283 300 loadbang;
#X obj 287 322 tgl 15 0 empty empty empty 17 7 0 10 -262144 -1 -1 1
1;
#X obj 231 366 tabwrite~ table;
#X msg 394 70 \; pd dsp 1 \;;
#X obj 93 106 random;
#X obj 164 164 random;
#X obj 35 320 *~ 0;
#X msg 45 148 0;
#X msg 10 150 1;
#X obj 225 249 spigot;
#X obj 176 248 spigot;
#X obj 110 46 route range delay playPause portamento;
#X msg 289 171 0;
#X msg 242 167 1;
#X msg 264 216 0;
#X msg 308 220 1;
#X obj 252 126 route harsh smooth;
#X obj 22 98 route playing paused, f 7;
#X msg 181 186 \$1 120;
#X connect 0 0 19 0;
#X connect 0 0 20 0;
#X connect 1 0 24 0;
#X connect 2 0 0 0;
#X connect 3 0 2 0;
#X connect 3 0 18 0;
#X connect 4 0 26 0;
#X connect 5 0 7 0;
#X connect 7 0 8 0;
#X connect 8 0 10 0;
#X connect 9 0 21 0;
#X connect 10 0 9 0;
#X connect 10 0 17 0;
#X connect 11 0 5 0;
#X connect 14 0 17 0;
#X connect 15 0 16 0;
#X connect 16 0 14 0;
#X connect 19 0 0 1;
#X connect 20 0 33 0;
#X connect 20 0 25 0;
#X connect 21 0 6 0;
#X connect 21 0 6 1;
#X connect 22 0 21 1;
#X connect 23 0 21 1;
#X connect 24 0 11 0;
#X connect 25 0 11 0;
#X connect 26 0 20 1;
#X connect 26 1 19 1;
#X connect 26 2 32 0;
#X connect 26 3 31 0;
#X connect 27 0 25 1;
#X connect 28 0 25 1;
#X connect 29 0 24 1;
#X connect 30 0 24 1;
#X connect 31 0 28 0;
#X connect 31 0 29 0;
#X connect 31 1 27 0;
#X connect 31 1 30 0;
#X connect 32 0 23 0;
#X connect 32 1 22 0;
#X connect 33 0 1 0;
