#N canvas 128 152 895 463 10;
#X obj 322 436 dac~;
#X obj 263 389 hip~ 10;
#X obj 380 390 hip~ 10;
#X obj 604 38 loadbang;
#X msg 629 59 \; pd dsp 1;
#N canvas 556 240 301 311 tremolo 0;
#X obj 92 15 inlet;
#X obj 30 12 inlet;
#X obj 137 73 osc~;
#X obj 154 243 -~;
#X msg 199 115 1;
#X obj 138 102 +~ 1;
#X obj 122 142 * -1;
#X obj 214 74 loadbang;
#X obj 189 214 *~ 0.5;
#X obj 190 189 *~ 0;
#X obj 93 236 -~;
#X obj 78 182 *~ 0.5;
#X obj 78 155 *~ 0;
#X obj 101 277 outlet~;
#X obj 154 276 outlet~;
#X connect 0 0 2 0;
#X connect 1 0 12 1;
#X connect 1 0 6 0;
#X connect 2 0 5 0;
#X connect 3 0 14 0;
#X connect 4 0 3 0;
#X connect 4 0 10 0;
#X connect 5 0 9 0;
#X connect 5 0 12 0;
#X connect 6 0 9 1;
#X connect 7 0 4 0;
#X connect 8 0 3 1;
#X connect 9 0 8 0;
#X connect 10 0 13 0;
#X connect 11 0 10 1;
#X connect 12 0 11 0;
#X restore 525 304 pd tremolo;
#X obj 226 293 expr~ $v1>$v2;
#X obj 309 318 lop~ 3000;
#X obj 262 369 *~;
#X obj 380 369 *~;
#X obj 26 256 phasor~;
#X obj 104 253 phasor~;
#X obj 179 253 phasor~;
#X obj 259 252 phasor~;
#X obj 21 4 oscReceive 9001;
#X obj 365 415 *~ 0.1;
#X obj 275 419 *~ 0.1;
#X obj 325 271 * 4;
#X msg 490 115 /freq4 100;
#X msg 509 136 /freq1 100;
#X msg 528 157 /freq2 100;
#X msg 545 178 /freq3 100;
#X msg 615 177 /hiCut 100;
#X msg 628 156 /pulseWidth 0.5;
#X msg 643 135 /lfoRate 1;
#X msg 660 113 /lfoDepth 0;
#X obj 561 240 oscSend 9998;
#N canvas 343 227 450 300 scale 0;
#X obj 213 44 inlet;
#X obj 213 89 / 127;
#X obj 210 120 - 0.5;
#X obj 214 146 abs;
#X obj 216 178 * 600;
#X obj 216 215 outlet;
#X connect 0 0 1 0;
#X connect 1 0 2 0;
#X connect 2 0 3 0;
#X connect 3 0 4 0;
#X connect 4 0 5 0;
#X restore 107 153 pd scale;
#X obj 114 65 route cv.on cv.off, f 6;
#X msg 127 112 0, f 2;
#X msg 109 112 1, f 2;
#X obj 118 177 spigot;
#X obj 96 229 +;
#X obj 121 202 t b f;
#N canvas 343 227 450 300 scale 0;
#X obj 213 44 inlet;
#X obj 213 89 / 127;
#X obj 210 120 - 0.5;
#X obj 214 146 abs;
#X obj 216 178 * 600;
#X obj 216 215 outlet;
#X connect 0 0 1 0;
#X connect 1 0 2 0;
#X connect 2 0 3 0;
#X connect 3 0 4 0;
#X connect 4 0 5 0;
#X restore 45 154 pd scale;
#X obj 46 135 r cv1;
#X obj 52 66 route cv.on cv.off, f 6;
#X msg 65 113 0, f 2;
#X msg 47 113 1, f 2;
#X obj 56 178 spigot;
#X obj 34 230 +;
#X obj 59 203 t b f;
#N canvas 343 227 450 300 scale 0;
#X obj 213 44 inlet;
#X obj 213 89 / 127;
#X obj 210 120 - 0.5;
#X obj 214 146 abs;
#X obj 216 178 * 600;
#X obj 216 215 outlet;
#X connect 0 0 1 0;
#X connect 1 0 2 0;
#X connect 2 0 3 0;
#X connect 3 0 4 0;
#X connect 4 0 5 0;
#X restore 187 150 pd scale;
#X obj 194 62 route cv.on cv.off, f 6;
#X msg 207 109 0, f 2;
#X msg 189 109 1, f 2;
#X obj 198 174 spigot;
#X obj 176 226 +;
#X obj 201 199 t b f;
#N canvas 343 227 450 300 scale 0;
#X obj 213 44 inlet;
#X obj 213 89 / 127;
#X obj 210 120 - 0.5;
#X obj 214 146 abs;
#X obj 216 178 * 600;
#X obj 216 215 outlet;
#X connect 0 0 1 0;
#X connect 1 0 2 0;
#X connect 2 0 3 0;
#X connect 3 0 4 0;
#X connect 4 0 5 0;
#X restore 261 148 pd scale;
#X obj 268 60 route cv.on cv.off, f 6;
#X msg 281 107 0, f 2;
#X msg 263 107 1, f 2;
#X obj 272 172 spigot;
#X obj 250 224 +;
#X obj 275 197 t b f;
#X obj 108 134 r cv2;
#X obj 188 131 r cv3;
#X obj 262 129 r cv4;
#X obj 21 23 route freq1 freq1.S freq2 freq2.S freq3 freq3.S freq4
freq4.S lfoDepth lfoRate pulseWidth pulseWidth.S hiCut, f 80;
#N canvas 525 241 450 300 scale 0;
#X obj 213 44 inlet;
#X obj 213 89 / 127;
#X obj 210 120 - 0.5;
#X obj 216 215 outlet;
#X connect 0 0 1 0;
#X connect 1 0 2 0;
#X connect 2 0 3 0;
#X restore 363 174 pd scale;
#X obj 391 74 route cv.on cv.off, f 6;
#X msg 403 124 0, f 2;
#X msg 385 124 1, f 2;
#X obj 364 199 spigot;
#X obj 316 246 +;
#X obj 345 220 t b f;
#X obj 372 151 r cv5;
#X connect 1 0 16 0;
#X connect 2 0 15 0;
#X connect 3 0 4 0;
#X connect 3 0 18 0;
#X connect 3 0 19 0;
#X connect 3 0 20 0;
#X connect 3 0 21 0;
#X connect 3 0 25 0;
#X connect 3 0 24 0;
#X connect 3 0 23 0;
#X connect 3 0 22 0;
#X connect 5 0 8 1;
#X connect 5 1 9 1;
#X connect 6 0 7 0;
#X connect 7 0 8 0;
#X connect 7 0 9 0;
#X connect 8 0 1 0;
#X connect 9 0 2 0;
#X connect 10 0 6 0;
#X connect 11 0 6 0;
#X connect 12 0 6 0;
#X connect 13 0 6 0;
#X connect 14 0 59 0;
#X connect 15 0 0 1;
#X connect 16 0 0 0;
#X connect 17 0 6 1;
#X connect 18 0 26 0;
#X connect 19 0 26 0;
#X connect 20 0 26 0;
#X connect 21 0 26 0;
#X connect 22 0 26 0;
#X connect 23 0 26 0;
#X connect 24 0 26 0;
#X connect 25 0 26 0;
#X connect 27 0 31 0;
#X connect 28 0 30 0;
#X connect 28 1 29 0;
#X connect 29 0 31 1;
#X connect 30 0 31 1;
#X connect 31 0 33 0;
#X connect 32 0 11 0;
#X connect 33 0 32 0;
#X connect 33 1 32 1;
#X connect 34 0 39 0;
#X connect 35 0 34 0;
#X connect 36 0 38 0;
#X connect 36 1 37 0;
#X connect 37 0 39 1;
#X connect 38 0 39 1;
#X connect 39 0 41 0;
#X connect 40 0 10 0;
#X connect 41 0 40 0;
#X connect 41 1 40 1;
#X connect 42 0 46 0;
#X connect 43 0 45 0;
#X connect 43 1 44 0;
#X connect 44 0 46 1;
#X connect 45 0 46 1;
#X connect 46 0 48 0;
#X connect 47 0 12 0;
#X connect 48 0 47 0;
#X connect 48 1 47 1;
#X connect 49 0 53 0;
#X connect 50 0 52 0;
#X connect 50 1 51 0;
#X connect 51 0 53 1;
#X connect 52 0 53 1;
#X connect 53 0 55 0;
#X connect 54 0 13 0;
#X connect 55 0 54 0;
#X connect 55 1 54 1;
#X connect 56 0 27 0;
#X connect 57 0 42 0;
#X connect 58 0 49 0;
#X connect 59 0 40 0;
#X connect 59 1 36 0;
#X connect 59 2 32 0;
#X connect 59 3 28 0;
#X connect 59 4 47 0;
#X connect 59 5 43 0;
#X connect 59 6 54 0;
#X connect 59 7 50 0;
#X connect 59 8 5 0;
#X connect 59 9 5 1;
#X connect 59 10 65 0;
#X connect 59 11 61 0;
#X connect 59 12 7 1;
#X connect 60 0 64 0;
#X connect 61 0 63 0;
#X connect 61 1 62 0;
#X connect 62 0 64 1;
#X connect 63 0 64 1;
#X connect 64 0 66 0;
#X connect 65 0 17 0;
#X connect 66 0 65 0;
#X connect 66 1 65 1;
#X connect 67 0 60 0;
