#N canvas 159 196 391 331 10;
#X obj 27 23 metro 30;
#X obj 136 26 tgl 15 0 empty empty empty 17 7 0 10 -262144 -1 -1 1
1;
#X obj 58 76 list prepend;
#X msg 153 62 /table;
#X obj 171 8 loadbang;
#X obj 79 102 list trim;
#X obj 131 159 list prepend send;
#X obj 131 182 list trim;
#X msg 156 271 disconnect;
#X obj 131 133 packOSC;
#X msg 146 93 typetags \$1;
#X obj 343 211 r echo;
#X obj 131 294 netsend -u -b;
#X obj 281 177 \$1;
#X msg 281 204 add2 \$1;
#X obj 25 47 array get table;
#X msg 152 243 connect 127.0.0.1;
#X obj 268 151 t b b;
#X connect 0 0 15 0;
#X connect 1 0 0 0;
#X connect 1 0 10 0;
#X connect 2 0 5 0;
#X connect 3 0 2 1;
#X connect 4 0 3 0;
#X connect 4 0 1 0;
#X connect 4 0 17 0;
#X connect 5 0 9 0;
#X connect 6 0 7 0;
#X connect 7 0 12 0;
#X connect 8 0 12 0;
#X connect 9 0 6 0;
#X connect 10 0 9 0;
#X connect 13 0 14 0;
#X connect 14 0 16 0;
#X connect 15 0 2 0;
#X connect 16 0 12 0;
#X connect 17 0 16 0;
#X connect 17 1 13 0;
